<svg width="29" height="29" viewBox="0 0 29 29" fill="none" xmlns="http://www.w3.org/2000/svg">
<circle cx="14.1257" cy="14.1257" r="13.1257" stroke="#4517FF" stroke-width="2"/>
<path d="M15.1885 16.5232H13.0635L12.8477 8.1062H15.4043L15.1885 16.5232ZM14.1426 20.2751C13.888 20.2751 13.6528 20.2115 13.437 20.0842C13.2212 19.9569 13.0496 19.7882 12.9224 19.5779C12.8006 19.3621 12.7425 19.1296 12.748 18.8806C12.7425 18.6316 12.8006 18.4019 12.9224 18.1917C13.0496 17.9814 13.2212 17.8153 13.437 17.6936C13.6528 17.5663 13.888 17.5027 14.1426 17.5027C14.3805 17.5027 14.6047 17.5663 14.8149 17.6936C15.0308 17.8153 15.2023 17.9814 15.3296 18.1917C15.4569 18.4019 15.5205 18.6316 15.5205 18.8806C15.5205 19.1296 15.4569 19.3621 15.3296 19.5779C15.2023 19.7882 15.0308 19.9569 14.8149 20.0842C14.6047 20.2115 14.3805 20.2751 14.1426 20.2751Z" fill="#4517FF"/>
</svg>
