<svg width="23" height="28" viewBox="0 0 23 28" fill="none" xmlns="http://www.w3.org/2000/svg">
<path fill-rule="evenodd" clip-rule="evenodd" d="M9.13428 10.4367L10.2624 6.83185L13.8673 5.7037L12.7392 9.30859L9.13428 10.4367Z" stroke="#4517FF" stroke-width="1.5" stroke-linecap="round" stroke-linejoin="round"/>
<circle cx="11.5007" cy="8.07023" r="6.80778" stroke="#4517FF" stroke-width="1.5" stroke-linecap="round" stroke-linejoin="round"/>
<path d="M6.33691 26.0481H5.73535V22.4543H4.73535V25.6887H4.15723V19.259H4.73535V21.9309H5.73535V19.1028H6.33691V26.0481ZM1.36816 23.7043C1.75618 23.6991 2.13379 23.6809 2.50098 23.6497C2.86816 23.6158 3.24837 23.5585 3.6416 23.4778L3.71973 24.0247C3.25879 24.1054 2.82389 24.164 2.41504 24.2004C2.00618 24.2343 1.59733 24.2512 1.18848 24.2512H0.758789V19.9543H1.36816V23.7043ZM12.8369 20.0872C12.8343 20.384 12.9502 20.6679 13.1846 20.9387C13.4189 21.2069 13.7249 21.4335 14.1025 21.6184C14.4801 21.8033 14.8734 21.9257 15.2822 21.9856L15.0557 22.47C14.6885 22.4075 14.3343 22.3033 13.9932 22.1575C13.6546 22.0116 13.3538 21.8293 13.0908 21.6106C12.8278 21.3892 12.6286 21.1431 12.4932 20.8723C12.3577 21.1431 12.1585 21.3879 11.8955 21.6067C11.6325 21.8254 11.3317 22.009 10.9932 22.1575C10.6572 22.3033 10.3083 22.4075 9.94629 22.47L9.7041 21.9856C10.1104 21.9257 10.5023 21.8033 10.8799 21.6184C11.2575 21.4335 11.5635 21.2069 11.7979 20.9387C12.0322 20.6679 12.1494 20.384 12.1494 20.0872V20.0403H9.92285V19.5403H15.0557V20.0403H12.8369V20.0872ZM15.6572 23.5715H12.7822V26.0481H12.1807V23.5715H9.3291V23.0637H15.6572V23.5715ZM22.001 24.2512H21.3838V22.384H19.7432V23.0637H16.5947V19.5715H17.2041V20.8059H19.1416V19.5715H19.7432V20.384H21.3838V19.1106H22.001V24.2512ZM22.1572 25.8997H17.5088V23.7434H18.126V25.384H22.1572V25.8997ZM19.1416 22.5559V21.2903H17.2041V22.5559H19.1416ZM21.3838 21.8762V20.8997H19.7432V21.8762H21.3838Z" fill="#4517FF"/>
</svg>
