<svg width="27" height="27" viewBox="0 0 27 27" fill="none" xmlns="http://www.w3.org/2000/svg">
<g filter="url(#filter0_d_409_1718)">
<rect x="2" y="0.803772" width="22.1583" height="22.1583" rx="5" fill="#4517FF"/>
<rect x="7.74341" y="13.3969" width="12.4978" height="3.49932" rx="0.5" stroke="white"/>
<line x1="12.3569" y1="12.8968" x2="12.3569" y2="16.3674" stroke="white"/>
<path d="M6.97106 6.15666L6.80165 7.04755C6.70102 7.57673 6.86844 8.12551 7.24408 8.51159V8.51159C7.86813 9.15298 7.86802 10.1838 7.23526 10.8166V10.8166C6.86233 11.1896 6.69204 11.7194 6.77786 12.2398L6.97106 13.4114" stroke="white"/>
<path d="M5.272 9.7841L5.16449 10.3494C5.10063 10.6852 5.20688 11.0335 5.44524 11.2785V11.2785C5.84124 11.6855 5.84118 12.3396 5.43964 12.7412V12.7412C5.203 12.9778 5.09494 13.314 5.14939 13.6443L5.272 14.3877" stroke="white"/>
</g>
<defs>
<filter id="filter0_d_409_1718" x="0" y="0.803772" width="26.1582" height="26.1583" filterUnits="userSpaceOnUse" color-interpolation-filters="sRGB">
<feFlood flood-opacity="0" result="BackgroundImageFix"/>
<feColorMatrix in="SourceAlpha" type="matrix" values="0 0 0 0 0 0 0 0 0 0 0 0 0 0 0 0 0 0 127 0" result="hardAlpha"/>
<feOffset dy="2"/>
<feGaussianBlur stdDeviation="1"/>
<feComposite in2="hardAlpha" operator="out"/>
<feColorMatrix type="matrix" values="0 0 0 0 0 0 0 0 0 0 0 0 0 0 0 0 0 0 0.25 0"/>
<feBlend mode="normal" in2="BackgroundImageFix" result="effect1_dropShadow_409_1718"/>
<feBlend mode="normal" in="SourceGraphic" in2="effect1_dropShadow_409_1718" result="shape"/>
</filter>
</defs>
</svg>
