<svg width="83" height="46" viewBox="0 0 83 46" fill="none" xmlns="http://www.w3.org/2000/svg">
<path fill-rule="evenodd" clip-rule="evenodd" d="M28.2764 21.2617C28.2764 19.8805 27.1571 18.7612 25.7769 18.7612C24.3956 18.7612 23.2764 19.8805 23.2764 21.2617C23.2764 22.642 24.3956 23.7612 25.7769 23.7612C27.1571 23.7612 28.2764 22.642 28.2764 21.2617Z" stroke="#4517FF" stroke-width="1.5" stroke-linecap="round" stroke-linejoin="round"/>
<path fill-rule="evenodd" clip-rule="evenodd" d="M25.7759 31.7612C24.5774 31.7612 18.2764 26.6596 18.2764 21.3245C18.2764 17.1479 21.6335 13.7612 25.7759 13.7612C29.9183 13.7612 33.2764 17.1479 33.2764 21.3245C33.2764 26.6596 26.9744 31.7612 25.7759 31.7612Z" stroke="#4517FF" stroke-width="1.5" stroke-linecap="round" stroke-linejoin="round"/>
<path d="M19.7461 34.2612H31.8064" stroke="#4517FF" stroke-linecap="round"/>
<path d="M0 16C0 10.3995 0 7.59921 1.08993 5.46009C2.04867 3.57847 3.57847 2.04867 5.46009 1.08993C7.59921 0 10.3995 0 16 0H66.588C72.1885 0 74.9888 0 77.1279 1.08993C79.0095 2.04867 80.5393 3.57847 81.4981 5.46009C82.588 7.59921 82.588 10.3995 82.588 16V29.5222C82.588 35.1227 82.588 37.923 81.4981 40.0621C80.5393 41.9437 79.0095 43.4735 77.1279 44.4323C74.9888 45.5222 72.1885 45.5222 66.588 45.5222H16C10.3995 45.5222 7.59921 45.5222 5.46009 44.4323C3.57847 43.4735 2.04867 41.9437 1.08993 40.0621C0 37.923 0 35.1227 0 29.5222V16Z" fill="#4517FF" fill-opacity="0.05"/>
<path d="M44.6123 18.5698L47.1641 24.8032H47.2656L49.8174 18.5698H52.1787V27.7612H50.3252V21.7437H50.249L47.8496 27.7231H46.5801L44.1807 21.7183H44.1045V27.7612H42.251V18.5698H44.6123ZM53.3594 25.8315C53.3594 25.1206 53.5985 24.6001 54.0767 24.27C54.5549 23.9399 55.1706 23.7537 55.9238 23.7114C56.3893 23.6818 56.9606 23.6522 57.6377 23.6226V23.064C57.6292 22.7762 57.5298 22.5519 57.3394 22.3911C57.1489 22.2303 56.8802 22.1499 56.5332 22.1499C56.2201 22.1499 55.964 22.2176 55.7651 22.353C55.5662 22.4884 55.4414 22.6746 55.3906 22.9116H53.6006C53.6387 22.5054 53.7783 22.1414 54.0195 21.8198C54.265 21.4982 54.6056 21.2443 55.0415 21.0581C55.4774 20.8719 55.9915 20.7788 56.584 20.7788C57.1087 20.7788 57.5911 20.8613 58.0312 21.0264C58.4756 21.1914 58.8311 21.4495 59.0977 21.8008C59.3685 22.1478 59.5039 22.5858 59.5039 23.1147V27.7612H57.7266V26.8091H57.6758C57.4938 27.1434 57.2336 27.4079 56.895 27.6025C56.5607 27.793 56.1481 27.8882 55.6572 27.8882C55.2087 27.8882 54.8109 27.812 54.4639 27.6597C54.1211 27.5031 53.8503 27.2703 53.6514 26.9614C53.4567 26.6525 53.3594 26.2759 53.3594 25.8315ZM55.1621 25.7808C55.1621 26.0389 55.2552 26.2399 55.4414 26.3838C55.6318 26.5234 55.8815 26.5933 56.1904 26.5933C56.4697 26.5933 56.7194 26.5361 56.9395 26.4219C57.1637 26.3076 57.3372 26.151 57.46 25.9521C57.5827 25.7533 57.6419 25.5353 57.6377 25.2983V24.7969C57.4388 24.8011 57.1934 24.8117 56.9014 24.8286C56.6094 24.8455 56.3851 24.8625 56.2285 24.8794C55.8984 24.9132 55.6382 25.0063 55.4478 25.1587C55.2573 25.311 55.1621 25.5184 55.1621 25.7808ZM60.9385 20.8677H62.792V22.0229H62.8682C63.0247 21.6759 63.2617 21.3818 63.5791 21.1406C63.8965 20.8994 64.3154 20.7788 64.8359 20.7788C65.3564 20.7788 65.8283 20.9142 66.2515 21.1851C66.6746 21.4517 67.009 21.8516 67.2544 22.3848C67.5041 22.9137 67.6289 23.5591 67.6289 24.3208C67.6289 25.0656 67.5062 25.7067 67.2607 26.2441C67.0195 26.7773 66.6873 27.1836 66.2642 27.4629C65.8452 27.738 65.3691 27.8755 64.8359 27.8755C64.3239 27.8755 63.9071 27.7591 63.5854 27.5264C63.2681 27.2894 63.029 26.9995 62.8682 26.6567H62.8174V30.3511H60.9385V20.8677ZM62.7793 24.3081C62.7793 24.7228 62.8364 25.0868 62.9507 25.3999C63.0649 25.7088 63.2321 25.95 63.4521 26.1235C63.6722 26.2928 63.9346 26.3774 64.2393 26.3774C64.709 26.3774 65.0708 26.1891 65.3247 25.8125C65.5828 25.4359 65.7119 24.9344 65.7119 24.3081C65.7119 23.6903 65.5828 23.1973 65.3247 22.8291C65.0708 22.4609 64.709 22.2769 64.2393 22.2769C63.7738 22.2769 63.4141 22.4588 63.1602 22.8228C62.9062 23.1825 62.7793 23.6776 62.7793 24.3081Z" fill="#4517FF"/>
</svg>
