<svg width="93" height="47" viewBox="0 0 93 47" fill="none" xmlns="http://www.w3.org/2000/svg">
<g filter="url(#filter0_d_409_1725)">
<path d="M4.21997 17.8794C4.21997 11.9011 4.21997 8.91187 5.4569 6.66189C6.37109 4.999 7.73954 3.63055 9.40243 2.71636C11.6524 1.47943 14.6416 1.47943 20.62 1.47943H72.3102C78.2886 1.47943 81.2778 1.47943 83.5277 2.71636C85.1906 3.63055 86.5591 4.999 87.4733 6.66189C88.7102 8.91187 88.7102 11.9011 88.7102 17.8794V22.0811C88.7102 28.0595 88.7102 31.0486 87.4733 33.2986C86.5591 34.9615 85.1906 36.33 83.5277 37.2441C81.2778 38.4811 78.2886 38.4811 72.3102 38.4811H51.6849H46.9558H40.7869H20.62C14.6416 38.4811 11.6524 38.4811 9.40243 37.2441C7.73954 36.33 6.37109 34.9615 5.4569 33.2986C4.21997 31.0486 4.21997 28.0595 4.21997 22.0811V17.8794Z" fill="white"/>
<path d="M4.71997 17.8794C4.71997 14.8814 4.72041 12.665 4.8727 10.9159C5.02443 9.1732 5.32401 7.9415 5.89506 6.90277C6.76353 5.32302 8.06356 4.02299 9.64331 3.15452C10.682 2.58347 11.9137 2.28389 13.6564 2.13216C15.4055 1.97987 17.622 1.97943 20.62 1.97943H72.3102C75.3082 1.97943 77.5246 1.97987 79.2738 2.13216C81.0164 2.28389 82.2481 2.58347 83.2869 3.15452C84.8666 4.02299 86.1666 5.32302 87.0351 6.90277C87.6062 7.9415 87.9057 9.1732 88.0575 10.9159C88.2098 12.665 88.2102 14.8814 88.2102 17.8794V22.0811C88.2102 25.0791 88.2098 27.2955 88.0575 29.0446C87.9057 30.7873 87.6062 32.019 87.0351 33.0577C86.1666 34.6375 84.8666 35.9375 83.2869 36.806C82.2481 37.377 81.0164 37.6766 79.2738 37.8284C77.5246 37.9806 75.3082 37.9811 72.3102 37.9811H51.6849H46.9558H40.7869H20.62C17.622 37.9811 15.4055 37.9806 13.6564 37.8284C11.9137 37.6766 10.682 37.377 9.64331 36.806C8.06356 35.9375 6.76353 34.6375 5.89506 33.0577C5.32401 32.019 5.02443 30.7873 4.8727 29.0446C4.72041 27.2955 4.71997 25.0791 4.71997 22.0811V17.8794Z" stroke="#4517FF"/>
</g>
<path d="M18.4817 12.1513C18.4784 12.6656 18.5696 13.1734 18.7551 13.6747C18.9407 14.1728 19.1995 14.6204 19.5315 15.0175C19.8668 15.4114 20.2493 15.7125 20.679 15.9208L20.1028 16.663C19.634 16.4189 19.219 16.0657 18.8577 15.6035C18.4996 15.1412 18.2229 14.6139 18.0276 14.0214C17.829 14.6529 17.5426 15.2161 17.1682 15.7109C16.7971 16.2024 16.3658 16.5751 15.8743 16.829L15.2981 16.0771C15.7375 15.8655 16.1282 15.553 16.47 15.1396C16.815 14.7262 17.0819 14.2574 17.2708 13.7333C17.4596 13.2092 17.554 12.6819 17.554 12.1513V10.6572H18.4817V12.1513ZM22.261 13.4111H23.6672V14.2021H22.261V18.6747H21.3333V9.92474H22.261V13.4111ZM30.9719 12.1415H32.2317V12.9033H30.9719V15.0908H30.0344V9.92474H30.9719V12.1415ZM28.1399 15.2568C28.7356 15.2568 29.2499 15.3235 29.6829 15.457C30.1191 15.5904 30.4543 15.7857 30.6887 16.0429C30.9231 16.2968 31.0403 16.6012 31.0403 16.956C31.0403 17.3108 30.9231 17.6152 30.6887 17.8691C30.4543 18.1262 30.1191 18.3216 29.6829 18.455C29.2467 18.5917 28.7323 18.6585 28.1399 18.6552C27.5409 18.6585 27.0201 18.5917 26.5774 18.455C26.1347 18.3216 25.7945 18.1262 25.5569 17.8691C25.3193 17.6152 25.2004 17.3108 25.2004 16.956C25.2004 16.6012 25.3193 16.2968 25.5569 16.0429C25.7945 15.7857 26.1331 15.5904 26.5725 15.457C27.0152 15.3235 27.5377 15.2568 28.1399 15.2568ZM28.1399 16.0087C27.72 16.0055 27.357 16.0413 27.051 16.1161C26.7483 16.1878 26.5155 16.2952 26.3528 16.4384C26.1933 16.5816 26.1152 16.7542 26.1184 16.956C26.1152 17.1546 26.1933 17.3271 26.3528 17.4736C26.5155 17.6168 26.7483 17.7259 27.051 17.8007C27.3538 17.8756 27.7167 17.913 28.1399 17.913C28.5533 17.913 28.9097 17.8756 29.2092 17.8007C29.5087 17.7259 29.7398 17.6168 29.9026 17.4736C30.0653 17.3271 30.1484 17.1546 30.1516 16.956C30.1484 16.7574 30.0653 16.5865 29.9026 16.4433C29.7398 16.2968 29.5071 16.1878 29.2043 16.1161C28.9049 16.0413 28.55 16.0055 28.1399 16.0087ZM28.3645 11.3212H25.3762V13.704C26.2747 13.7008 26.9989 13.6796 27.5491 13.6406C28.0992 13.6015 28.6412 13.5283 29.175 13.4208L29.2629 14.1728C28.7063 14.29 28.1366 14.3665 27.554 14.4023C26.9713 14.4381 26.1705 14.456 25.1516 14.456H24.4583V10.5693H28.3645V11.3212ZM40.0247 18.6747H39.0969V16.2724H34.0969V15.54H40.0247V18.6747ZM40.0247 15.081H39.0969V13.8798H36.9387C36.7304 14.1207 36.47 14.3079 36.1575 14.4413C35.845 14.5748 35.5032 14.6415 35.1321 14.6415C34.6991 14.6415 34.3101 14.552 33.9651 14.373C33.62 14.1907 33.3482 13.9384 33.1497 13.6161C32.9543 13.2939 32.8567 12.9293 32.8567 12.5224C32.8567 12.122 32.9543 11.7623 33.1497 11.4433C33.3482 11.121 33.62 10.8688 33.9651 10.6865C34.3134 10.5042 34.7024 10.413 35.1321 10.413C35.5032 10.413 35.845 10.4798 36.1575 10.6132C36.47 10.7467 36.7304 10.9339 36.9387 11.1747H39.0969V9.92474H40.0247V15.081ZM35.1516 11.1943C34.8814 11.1943 34.6389 11.2512 34.4241 11.3652C34.2125 11.4759 34.0465 11.6321 33.926 11.8339C33.8056 12.0357 33.7454 12.2652 33.7454 12.5224C33.7454 12.7861 33.8056 13.0188 33.926 13.2206C34.0465 13.4225 34.2125 13.5803 34.4241 13.6943C34.6389 13.805 34.8814 13.8603 35.1516 13.8603C35.4153 13.8603 35.6513 13.805 35.8596 13.6943C36.0712 13.5803 36.2372 13.4225 36.3577 13.2206C36.4781 13.0156 36.5383 12.7828 36.5383 12.5224C36.5383 12.2652 36.4781 12.0357 36.3577 11.8339C36.2372 11.6321 36.0712 11.4759 35.8596 11.3652C35.648 11.2512 35.412 11.1943 35.1516 11.1943ZM39.0969 13.1181V11.9365H37.344C37.3993 12.1285 37.427 12.3238 37.427 12.5224C37.427 12.7275 37.3993 12.926 37.344 13.1181H39.0969ZM44.1165 17.0634L46.5676 14.5927C46.8639 14.2802 47.0901 14.0296 47.2463 13.8408C47.4026 13.652 47.5214 13.468 47.6028 13.289C47.6874 13.1067 47.7297 12.9163 47.7297 12.7177C47.7297 12.4898 47.6728 12.2897 47.5588 12.1171C47.4449 11.9446 47.2887 11.8111 47.0901 11.7167C46.8915 11.6223 46.6685 11.5751 46.4211 11.5751C46.164 11.5751 45.9377 11.6272 45.7424 11.7314C45.5471 11.8356 45.3958 11.982 45.2883 12.1708C45.1842 12.3596 45.1321 12.5777 45.1321 12.8251H44.1165C44.1132 12.402 44.2109 12.0276 44.4094 11.7021C44.608 11.3766 44.8847 11.1243 45.2395 10.9453C45.5943 10.7662 45.9947 10.6767 46.4407 10.6767C46.8899 10.6767 47.2887 10.7646 47.637 10.9404C47.9885 11.1129 48.262 11.3522 48.4573 11.6581C48.6526 11.9641 48.7519 12.3076 48.7551 12.6884C48.7519 12.9586 48.6998 13.219 48.5989 13.4697C48.498 13.7171 48.3254 13.9938 48.0813 14.2997C47.8372 14.6025 47.4921 14.9736 47.0461 15.413L45.6106 16.8681V16.9267H48.8723V17.8447H44.1165V17.0634ZM57.0559 16.3994H56.1282V13.0986H54.2141V14.9443H50.1809V10.5107H51.1086V11.9951H53.2961V10.5107H54.2141V12.3466H56.1282V9.93451H57.0559V16.3994ZM57.2512 18.4892H51.343V15.7646H52.2805V17.7372H57.2512V18.4892ZM53.2961 14.1923V12.7079H51.1086V14.1923H53.2961ZM68.8137 14.456H65.2883V15.1884H67.8176V17.1611H62.72V17.8837H68.0618V18.5869H61.8118V16.5165H66.8997V15.8622H61.802V15.1884H64.3704V14.456H60.8547V13.7626H68.8137V14.456ZM65.2883 10.6572H68.0227V11.3701H65.3616C65.4202 11.6142 65.5846 11.8339 65.8547 12.0292C66.1249 12.2213 66.4797 12.3775 66.9192 12.498C67.3619 12.6152 67.8632 12.6884 68.4231 12.7177L68.1399 13.4208C67.3619 13.3655 66.6816 13.2255 66.0989 13.0009C65.5194 12.7731 65.0963 12.4719 64.8293 12.0976C64.5624 12.4719 64.1376 12.7731 63.5549 13.0009C62.9755 13.2255 62.2935 13.3655 61.509 13.4208L61.2454 12.7177C61.802 12.6884 62.2984 12.6152 62.7346 12.498C63.1741 12.3775 63.5289 12.2213 63.7991 12.0292C64.0693 11.8339 64.2353 11.6142 64.2971 11.3701H61.6458V10.6572H64.3704V9.88568H65.2883V10.6572ZM76.4504 11.2431C76.4504 11.8063 76.4358 12.3059 76.4065 12.7421C76.3805 13.1751 76.3137 13.6682 76.2063 14.2216H77.4661V14.9833H73.9211V18.6845H72.9836V14.9833H69.4875V14.2216H75.2688C75.386 13.6715 75.4592 13.1783 75.4885 12.7421C75.5178 12.3027 75.5325 11.803 75.5325 11.2431V11.2333H70.4641V10.4716H76.4504V11.2431Z" fill="black"/>
<path d="M27.8865 28.166L30.699 23.8242H31.8943V28.1308H32.7644V28.9482H31.8943V30.1874H30.9802V28.9482H27.8865V28.166ZM30.9802 28.1308V24.9755H30.9099L28.906 28.0781V28.1308H30.9802ZM34.1267 30.249C34.0154 30.249 33.9099 30.2211 33.8103 30.1655C33.7136 30.1098 33.6375 30.0336 33.5818 29.937C33.5261 29.8403 33.4998 29.7363 33.5027 29.6249C33.4998 29.5136 33.5261 29.4096 33.5818 29.3129C33.6375 29.2162 33.7136 29.1401 33.8103 29.0844C33.9099 29.0287 34.0154 29.0009 34.1267 29.0009C34.2351 29.0009 34.3376 29.0287 34.4343 29.0844C34.531 29.1401 34.6072 29.2162 34.6628 29.3129C34.7214 29.4096 34.7507 29.5136 34.7507 29.6249C34.7507 29.7363 34.7214 29.8403 34.6628 29.937C34.6072 30.0336 34.531 30.1098 34.4343 30.1655C34.3376 30.2211 34.2351 30.249 34.1267 30.249ZM37.906 30.2753C37.4724 30.2753 37.0828 30.2021 36.7371 30.0556C36.3943 29.9091 36.1233 29.704 35.9241 29.4404C35.7278 29.1738 35.6238 28.8691 35.6121 28.5263H36.5964C36.6082 28.7109 36.6711 28.872 36.7854 29.0097C36.9026 29.1474 37.0579 29.2543 37.2512 29.3305C37.4446 29.4037 37.6599 29.4404 37.8972 29.4404C38.1492 29.4404 38.3762 29.3964 38.5784 29.3085C38.7805 29.2206 38.9387 29.0991 39.053 28.9438C39.1672 28.7856 39.2244 28.6054 39.2244 28.4033C39.2244 28.1953 39.1672 28.0092 39.053 27.8452C38.9387 27.6811 38.7732 27.5536 38.5564 27.4628C38.3425 27.3691 38.0876 27.3222 37.7917 27.3222H37.2468V26.5312H37.7917C38.0291 26.5312 38.2415 26.4887 38.429 26.4037C38.6165 26.3188 38.7615 26.2001 38.864 26.0478C38.9695 25.8954 39.0222 25.7197 39.0222 25.5204C39.0222 25.3271 38.9768 25.1572 38.886 25.0107C38.7952 24.8642 38.6663 24.7499 38.4993 24.6679C38.3323 24.5859 38.1375 24.5449 37.9148 24.5449C37.698 24.5449 37.4973 24.5829 37.3127 24.6591C37.1282 24.7353 36.9788 24.8437 36.8645 24.9843C36.7532 25.1249 36.6931 25.289 36.6843 25.4765H35.7527C35.7615 25.1396 35.8625 24.8393 36.0559 24.5756C36.2522 24.309 36.5144 24.1025 36.8425 23.956C37.1707 23.8095 37.531 23.7363 37.9236 23.7363C38.3279 23.7363 38.6838 23.8139 38.9915 23.9692C39.302 24.1245 39.5408 24.3354 39.7078 24.602C39.8748 24.8657 39.9568 25.1542 39.9539 25.4677C39.9568 25.8251 39.8557 26.1298 39.6506 26.3818C39.4485 26.6308 39.1746 26.7978 38.8289 26.8828V26.9267C39.2595 26.9882 39.595 27.1537 39.8352 27.4233C40.0784 27.6928 40.2 28.0312 40.2 28.4384C40.2 28.787 40.1003 29.102 39.9011 29.3832C39.7019 29.6616 39.428 29.8798 39.0793 30.038C38.7307 30.1962 38.3396 30.2753 37.906 30.2753ZM41.4656 27.7617C41.4744 26.1796 41.908 24.7763 42.7664 23.5517H43.6277C43.4226 23.8476 43.2292 24.2285 43.0476 24.6943C42.866 25.1572 42.7195 25.6596 42.6082 26.2016C42.4968 26.7407 42.4412 27.2607 42.4412 27.7617C42.4412 28.2656 42.4968 28.7885 42.6082 29.3305C42.7195 29.8696 42.866 30.3705 43.0476 30.8334C43.2292 31.2993 43.4226 31.6816 43.6277 31.9804H42.7664C41.908 30.7558 41.4744 29.3495 41.4656 27.7617ZM44.4802 29.4843L46.6863 27.2607C46.9529 26.9794 47.1565 26.7538 47.2971 26.5839C47.4377 26.414 47.5447 26.2485 47.6179 26.0873C47.6941 25.9233 47.7322 25.7519 47.7322 25.5732C47.7322 25.3681 47.6809 25.1879 47.5784 25.0327C47.4758 24.8774 47.3352 24.7573 47.1565 24.6723C46.9778 24.5873 46.7771 24.5449 46.5544 24.5449C46.323 24.5449 46.1194 24.5917 45.9436 24.6855C45.7678 24.7792 45.6316 24.9111 45.5349 25.081C45.4412 25.2509 45.3943 25.4472 45.3943 25.6699H44.4802C44.4773 25.289 44.5652 24.9521 44.7439 24.6591C44.9226 24.3661 45.1716 24.1391 45.491 23.978C45.8103 23.8168 46.1707 23.7363 46.572 23.7363C46.9763 23.7363 47.3352 23.8154 47.6487 23.9736C47.9651 24.1288 48.2112 24.3442 48.387 24.6196C48.5627 24.895 48.6521 25.204 48.655 25.5468C48.6521 25.79 48.6052 26.0244 48.5144 26.2499C48.4236 26.4726 48.2683 26.7216 48.0486 26.997C47.8289 27.2695 47.5183 27.6035 47.1169 27.999L45.825 29.3085V29.3613H48.7605V30.1874H44.4802V29.4843ZM51.7224 27.7617C51.7136 29.3495 51.28 30.7558 50.4216 31.9804H49.5603C49.7654 31.6816 49.9587 31.2993 50.1404 30.8334C50.322 30.3705 50.4685 29.8696 50.5798 29.3305C50.6912 28.7885 50.7468 28.2656 50.7468 27.7617C50.7468 27.2607 50.6912 26.7407 50.5798 26.2016C50.4685 25.6596 50.322 25.1572 50.1404 24.6943C49.9587 24.2285 49.7654 23.8476 49.5603 23.5517H50.4216C51.28 24.7763 51.7136 26.1796 51.7224 27.7617ZM57.6638 30.1874H56.6882V24.791H56.6531L55.1326 25.7841V24.8613L56.7146 23.8242H57.6638V30.1874ZM61.4958 30.2753C61.0066 30.2753 60.5862 30.1479 60.2346 29.893C59.886 29.6381 59.6194 29.2661 59.4348 28.7768C59.2502 28.2846 59.158 27.6943 59.158 27.0058C59.158 26.3232 59.2502 25.7372 59.4348 25.248C59.6223 24.7558 59.8918 24.3808 60.2434 24.123C60.595 23.8652 61.0125 23.7363 61.4958 23.7363C61.9792 23.7363 62.3967 23.8652 62.7483 24.123C63.0999 24.3808 63.3679 24.7558 63.5525 25.248C63.74 25.7372 63.8337 26.3232 63.8337 27.0058C63.8337 27.6943 63.7415 28.2831 63.5569 28.7724C63.3723 29.2617 63.1042 29.6352 62.7527 29.893C62.4011 30.1479 61.9822 30.2753 61.4958 30.2753ZM61.4958 29.4404C61.783 29.4404 62.0291 29.3481 62.2341 29.1635C62.4392 28.976 62.5959 28.7006 62.7043 28.3373C62.8127 27.9741 62.8669 27.5302 62.8669 27.0058C62.8669 26.4843 62.8113 26.0405 62.7 25.6743C62.5916 25.3051 62.4348 25.0268 62.2297 24.8393C62.0247 24.6489 61.78 24.5536 61.4958 24.5536C61.2117 24.5536 60.967 24.6489 60.762 24.8393C60.5569 25.0268 60.3987 25.3051 60.2874 25.6743C60.179 26.0405 60.1248 26.4843 60.1248 27.0058C60.1248 27.5302 60.179 27.9741 60.2874 28.3373C60.3958 28.7006 60.5525 28.976 60.7576 29.1635C60.9626 29.3481 61.2087 29.4404 61.4958 29.4404ZM67.0505 30.2753C66.5613 30.2753 66.1409 30.1479 65.7893 29.893C65.4407 29.6381 65.1741 29.2661 64.9895 28.7768C64.8049 28.2846 64.7126 27.6943 64.7126 27.0058C64.7126 26.3232 64.8049 25.7372 64.9895 25.248C65.177 24.7558 65.4465 24.3808 65.7981 24.123C66.1497 23.8652 66.5671 23.7363 67.0505 23.7363C67.5339 23.7363 67.9514 23.8652 68.303 24.123C68.6545 24.3808 68.9226 24.7558 69.1072 25.248C69.2947 25.7372 69.3884 26.3232 69.3884 27.0058C69.3884 27.6943 69.2961 28.2831 69.1116 28.7724C68.927 29.2617 68.6589 29.6352 68.3074 29.893C67.9558 30.1479 67.5369 30.2753 67.0505 30.2753ZM67.0505 29.4404C67.3376 29.4404 67.5837 29.3481 67.7888 29.1635C67.9939 28.976 68.1506 28.7006 68.259 28.3373C68.3674 27.9741 68.4216 27.5302 68.4216 27.0058C68.4216 26.4843 68.366 26.0405 68.2546 25.6743C68.1462 25.3051 67.9895 25.0268 67.7844 24.8393C67.5793 24.6489 67.3347 24.5536 67.0505 24.5536C66.7664 24.5536 66.5217 24.6489 66.3167 24.8393C66.1116 25.0268 65.9534 25.3051 65.842 25.6743C65.7336 26.0405 65.6794 26.4843 65.6794 27.0058C65.6794 27.5302 65.7336 27.9741 65.842 28.3373C65.9504 28.7006 66.1072 28.976 66.3123 29.1635C66.5173 29.3481 66.7634 29.4404 67.0505 29.4404ZM70.3992 25.415H71.3044V26.1972H71.3572C71.4597 25.9277 71.6223 25.7197 71.845 25.5732C72.0706 25.4267 72.3416 25.3535 72.658 25.3535C72.9714 25.3535 73.238 25.4282 73.4578 25.5776C73.6775 25.7241 73.8386 25.9306 73.9412 26.1972H73.9939C74.1111 25.9335 74.2927 25.727 74.5388 25.5776C74.7878 25.4282 75.0837 25.3535 75.4265 25.3535C75.7195 25.3535 75.9758 25.415 76.1956 25.538C76.4182 25.6611 76.5911 25.8456 76.7141 26.0917C76.8401 26.3349 76.9031 26.6337 76.9031 26.9882V30.1874H75.9626V27.0761C75.9626 26.7714 75.8792 26.5429 75.7122 26.3906C75.5452 26.2382 75.3298 26.162 75.0662 26.162C74.8699 26.162 74.7 26.2045 74.5564 26.2895C74.4128 26.3715 74.303 26.4872 74.2268 26.6367C74.1536 26.7861 74.1169 26.956 74.1169 27.1464V30.1874H73.1853V27.0234C73.1853 26.8535 73.1487 26.704 73.0754 26.5751C73.0022 26.4433 72.8997 26.3422 72.7678 26.2719C72.636 26.1987 72.4851 26.162 72.3152 26.162C72.1394 26.162 71.9768 26.2089 71.8274 26.3027C71.678 26.3935 71.5593 26.5209 71.4714 26.685C71.3835 26.8491 71.3396 27.0351 71.3396 27.2431V30.1874H70.3992V25.415Z" fill="black"/>
<path d="M20.0263 22.2836L21.1626 25.7808H24.8398L21.8649 27.9422L23.0012 31.4395L20.0263 29.2781L17.0514 31.4395L18.1877 27.9422L15.2128 25.7808H18.89L20.0263 22.2836Z" fill="#4517FF"/>
<defs>
<filter id="filter0_d_409_1725" x="0.219971" y="1.47943" width="92.4902" height="45.0016" filterUnits="userSpaceOnUse" color-interpolation-filters="sRGB">
<feFlood flood-opacity="0" result="BackgroundImageFix"/>
<feColorMatrix in="SourceAlpha" type="matrix" values="0 0 0 0 0 0 0 0 0 0 0 0 0 0 0 0 0 0 127 0" result="hardAlpha"/>
<feOffset dy="4"/>
<feGaussianBlur stdDeviation="2"/>
<feComposite in2="hardAlpha" operator="out"/>
<feColorMatrix type="matrix" values="0 0 0 0 0 0 0 0 0 0 0 0 0 0 0 0 0 0 0.25 0"/>
<feBlend mode="normal" in2="BackgroundImageFix" result="effect1_dropShadow_409_1725"/>
<feBlend mode="normal" in="SourceGraphic" in2="effect1_dropShadow_409_1725" result="shape"/>
</filter>
</defs>
</svg>
