<svg width="25" height="25" viewBox="0 0 25 25" fill="none" xmlns="http://www.w3.org/2000/svg">
<path fill-rule="evenodd" clip-rule="evenodd" d="M13.5564 4.88205L15.3847 8.5532C15.5639 8.9136 15.9097 9.16351 16.3108 9.22134L20.4007 9.81306C21.4112 9.95969 21.8133 11.1906 21.082 11.896L18.1245 14.7523C17.8338 15.0332 17.7015 15.437 17.7703 15.8335L18.4683 19.8661C18.6401 20.8637 17.5838 21.6247 16.6806 21.1528L13.0252 19.2475C12.6668 19.0606 12.2376 19.0606 11.8782 19.2475L8.22272 21.1528C7.31953 21.6247 6.2632 20.8637 6.43613 19.8661L7.13306 15.8335C7.20181 15.437 7.06951 15.0332 6.77887 14.7523L3.82136 11.896C3.09006 11.1906 3.49217 9.95969 4.50266 9.81306L8.59254 9.22134C8.99361 9.16351 9.34051 8.9136 9.51969 8.5532L11.3469 4.88205C11.799 3.97433 13.1043 3.97433 13.5564 4.88205Z" stroke="#828282" stroke-width="1.5" stroke-linecap="round" stroke-linejoin="round"/>
</svg>
