<svg width="143" height="48" viewBox="0 0 143 48" fill="none" xmlns="http://www.w3.org/2000/svg">
<g filter="url(#filter0_d_409_1303)">
<path d="M4.47852 10.053C4.47852 4.53013 8.95567 0.0529785 14.4785 0.0529785H128.522C134.045 0.0529785 138.522 4.53013 138.522 10.053V29.4094C138.522 34.9322 134.045 39.4094 128.522 39.4094H14.4785C8.95567 39.4094 4.47852 34.9322 4.47852 29.4094V10.053Z" fill="#4517FF"/>
<path d="M57.0781 18.866H53.9424V19.9705H58.4111V21.2781H47.874V19.9705H52.3174V18.866H49.1816V14.8035H57.0781V18.866ZM50.7686 17.5964H55.4912V16.0603H50.7686V17.5964ZM57.1289 25.8992H55.5166V23.3982H49.042V22.1287H57.1289V25.8992ZM69.6719 21.8367H59.0967V20.5417H63.5781V19.7039H60.417V16.53H66.7646V15.8191H60.3916V14.5623H68.3896V17.698H62.0293V18.4597H68.6055V19.7039H65.1904V20.5417H69.6719V21.8367ZM68.4531 25.8484H66.8154V23.7664H60.2773V22.4968H68.4531V25.8484ZM83.916 24.5535H73.3408V23.2332H77.7969V21.1003H74.458V15.0828H76.083V16.8728H81.123V15.0828H82.7354V21.1003H79.4092V23.2332H83.916V24.5535ZM81.123 19.8054V18.1677H76.083V19.8054H81.123ZM94.2881 25.8992H92.6504V14.3464H94.2881V25.8992ZM90.8223 15.5525C90.8223 16.7882 90.6551 17.9117 90.3208 18.9231C89.9907 19.9345 89.4321 20.8634 88.645 21.7097C87.8579 22.5518 86.7979 23.2882 85.4648 23.9187L84.6143 22.6238C85.6003 22.1583 86.4128 21.6399 87.0518 21.0686C87.695 20.4973 88.1859 19.8647 88.5244 19.1707C88.8672 18.4724 89.083 17.6895 89.1719 16.822H85.2363V15.5525H90.8223Z" fill="white"/>
</g>
<defs>
<filter id="filter0_d_409_1303" x="0.478516" y="0.0529785" width="142.043" height="47.3564" filterUnits="userSpaceOnUse" color-interpolation-filters="sRGB">
<feFlood flood-opacity="0" result="BackgroundImageFix"/>
<feColorMatrix in="SourceAlpha" type="matrix" values="0 0 0 0 0 0 0 0 0 0 0 0 0 0 0 0 0 0 127 0" result="hardAlpha"/>
<feOffset dy="4"/>
<feGaussianBlur stdDeviation="2"/>
<feComposite in2="hardAlpha" operator="out"/>
<feColorMatrix type="matrix" values="0 0 0 0 0.272 0 0 0 0 0.0900004 0 0 0 0 1 0 0 0 0.1 0"/>
<feBlend mode="normal" in2="BackgroundImageFix" result="effect1_dropShadow_409_1303"/>
<feBlend mode="normal" in="SourceGraphic" in2="effect1_dropShadow_409_1303" result="shape"/>
</filter>
</defs>
</svg>
